nColumns=28
nRows=24
DataType=double
version=3
OpenSimVersion=4.1
endheader
time	ground_force_1_vx	ground_force_1_vy	ground_force_1_vz	ground_force_1_px	ground_force_1_py	ground_force_1_pz	ground_force_1_mx	ground_force_1_my	ground_force_1_mz	ground_force_2_vx	ground_force_2_vy	ground_force_2_vz	ground_force_2_px	ground_force_2_py	ground_force_2_pz	ground_force_2_mx	ground_force_2_my	ground_force_2_mz	ground_force_3_vx	ground_force_3_vy	ground_force_3_vz	ground_force_3_px	ground_force_3_py	ground_force_3_pz	ground_force_3_mx	ground_force_3_my	ground_force_3_mz
3.37	7.03932	583.036	-47.4923	-0.224932	0.006	-0.447279	0	-0.782818	0	0	0	0	0.000211164	0	-0.00010165	0	0	0	0	0	0	0.00020805	0	-0.000117561	0	0	0
3.38	6.36883	590.7	-47.4232	-0.223605	0.006	-0.446836	0	-0.638767	0	0	0	0	0.000211175	0	-0.000101535	0	0	0	0	0	0	0.00020805	0	-0.000117561	0	0	0
3.39	5.69307	598.716	-47.0356	-0.222489	0.006	-0.446598	0	-0.476223	0	0	0	0	0.000211187	0	-0.00010142	0	0	0	0	0	0	0.00020805	0	-0.000117561	0	0	0
3.4	5.02109	607.112	-46.367	-0.221586	0.006	-0.446559	0	-0.296926	0	0	0	0	0.000211199	0	-0.000101303	0	0	0	0	0	0	0.00020805	0	-0.000117561	0	0	0
3.41	4.36346	615.82	-45.4732	-0.220881	0.006	-0.446702	0	-0.102701	0	0	0	0	0.000211211	0	-0.000101187	0	0	0	0	0	0	0.00020805	0	-0.000117561	0	0	0
3.42	3.72903	624.689	-44.4188	-0.220347	0.006	-0.447001	0	0.104317	0	0	0	0	0.000211223	0	-0.000101069	0	0	0	0	0	0	0.00020805	0	-0.000117561	0	0	0
3.43	3.12871	633.508	-43.2644	-0.219944	0.006	-0.447422	0	0.321264	0	0	0	0	0.000211235	0	-0.000100951	0	0	0	0	0	0	0.00020805	0	-0.000117561	0	0	0
3.44	2.57738	642.028	-42.0601	-0.219631	0.006	-0.44793	0	0.54461	0	0	0	0	0.000211247	0	-0.000100832	0	0	0	0	0	0	0.00020805	0	-0.000117561	0	0	0
3.45	2.0923	650.001	-40.844	-0.219364	0.006	-0.448497	0	0.770531	0	0	0	0	0.000211259	0	-0.000100713	0	0	0	0	0	0	0.00020805	0	-0.000117561	0	0	0
3.46	1.68786	657.225	-39.641	-0.219104	0.006	-0.449095	0	0.994975	0	0	0	0	0.000211271	0	-0.000100593	0	0	0	0	0	0	0.00020805	0	-0.000117561	0	0	0
3.47	1.37152	663.588	-38.4609	-0.218821	0.006	-0.449702	0	1.21347	0	-1.68455	20.6192	-4.35516	-0.0517077	0.006	-0.749221	0	0.602516	0	0	0	0	0.00020805	0	-0.000117561	0	0	0
3.48	1.14294	669.091	-37.2987	-0.218493	0.006	-0.450307	0	1.42145	0	-2.00654	22.6947	-4.43645	-0.0586457	0.006	-0.75464	0	0.568539	0	0	0	0	0.00020805	0	-0.000117561	0	0	0
3.49	0.994305	673.827	-36.1395	-0.218109	0.006	-0.450902	0	1.61478	0	-2.33376	24.9671	-4.55137	-0.0646307	0.006	-0.759444	0	0.54444	0	0	0	0	0.00020805	0	-0.000117561	0	0	0
3.5	0.913187	677.942	-34.9658	-0.217661	0.006	-0.451483	0	1.79039	0	-2.65861	27.4346	-4.69652	-0.0697397	0.006	-0.763647	0	0.528603	0	0	0	0	0.00020805	0	-0.000117561	0	0	0
3.51	0.885932	681.586	-33.7621	-0.217148	0.006	-0.452045	0	1.94679	0	-2.97618	30.0977	-4.86735	-0.0740597	0.006	-0.767287	0	0.519466	0	0	0	0	0.00020805	0	-0.000117561	0	0	0
3.52	0.902146	684.87	-32.517	-0.216569	0.006	-0.452583	0	2.08426	0	-3.28514	32.9573	-5.05854	-0.0776817	0.006	-0.770419	0	0.515685	0	0	0	0	0.00020805	0	-0.000117561	0	0	0
3.53	0.956294	687.834	-31.2261	-0.215921	0.006	-0.453093	0	2.20486	0	-3.58721	36.0128	-5.26427	-0.0806846	0.006	-0.773104	0	0.516163	0	0	0	0	0.00020805	0	-0.000117561	0	0	0
3.54	1.0497	690.458	-29.8921	-0.215205	0.006	-0.453565	0	2.31196	0	-3.88536	39.2585	-5.47877	-0.0831456	0.006	-0.775403	0	0.520167	0	0	0	0	0.00020805	0	-0.000117561	0	0	0
3.55	1.19333	692.705	-28.5214	-0.214418	0.006	-0.453992	0	2.40954	0	-4.18232	42.6831	-5.69662	-0.0851416	0.006	-0.777376	0	0.527238	0	0	0	0	0.00020805	0	-0.000117561	0	0	0
3.56	1.40785	694.579	-27.1198	-0.213569	0.006	-0.454368	0	2.50151	0	-4.48027	46.2682	-5.9126	-0.0867476	0.006	-0.77908	0	0.537189	0	0	0	0	0.00020805	0	-0.000117561	0	0	0
3.57	1.72285	696.164	-25.689	-0.212672	0.006	-0.454698	0	2.59128	0	-4.78216	49.9853	-6.12167	-0.0880316	0.006	-0.780558	0	0.549867	0	0	0	0	0.00020805	0	-0.000117561	0	0	0
3.58	2.17357	697.626	-24.226	-0.211751	0.006	-0.454985	0	2.6815	0	-5.0935	53.7962	-6.319	-0.0890526	0.006	-0.781844	0	0.564884	0	0	0	0	0.00020805	0	-0.000117561	0	0	0
3.59	2.79614	699.195	-22.7249	-0.210835	0.006	-0.455237	0	2.77397	0	-5.42185	57.6585	-6.50038	-0.0898656	0.006	-0.782966	0	0.581701	0	0	0	0	0.00020805	0	-0.000117561	0	0	0
3.6	3.62005	701.12	-21.1809	-0.209953	0.006	-0.455466	0	2.86957	0	-5.77684	61.5355	-6.66228	-0.0905166	0.006	-0.783949	0	0.599752	0	0	0	0	0.00020805	0	-0.000117561	0	0	0
